<?xml version="1.0" standalone="no"?>
<!DOCTYPE svg PUBLIC "-//W3C//DTD SVG 20010904//EN"
 "http://www.w3.org/TR/2001/REC-SVG-20010904/DTD/svg10.dtd">
<svg version="1.0" xmlns="http://www.w3.org/2000/svg"
 width="260.000000pt" height="260.000000pt" viewBox="0 0 260.000000 260.000000"
 preserveAspectRatio="xMidYMid meet">
<metadata>
Created by potrace 1.14, written by Peter Selinger 2001-2017
</metadata>
<g transform="translate(0.000000,260.000000) scale(0.100000,-0.100000)"
fill="#000000" stroke="none">
<path d="M1288 2475 c-2 -1 -23 -5 -49 -8 -58 -7 -148 -39 -207 -73 -54 -31
-172 -148 -172 -170 0 -8 -4 -14 -8 -14 -11 0 -56 -103 -66 -153 -3 -12 -8
-35 -12 -52 -11 -56 -11 -170 2 -237 14 -75 40 -132 93 -201 37 -50 144 -137
168 -137 7 0 13 -4 13 -9 0 -5 10 -12 23 -16 12 -4 24 -8 27 -9 3 -2 19 -8 35
-15 17 -6 39 -16 50 -21 19 -8 58 -21 80 -26 16 -3 181 -62 268 -95 205 -78
329 -192 378 -349 23 -75 24 -201 3 -262 -7 -21 -11 -38 -8 -38 2 0 -2 -10
-11 -23 -8 -13 -12 -27 -8 -30 3 -4 1 -7 -5 -7 -6 0 -14 -9 -17 -21 -11 -32
-73 -102 -125 -141 -49 -35 -146 -82 -205 -99 -30 -8 -97 -14 -170 -14 -121 0
-170 6 -209 27 -11 6 -23 11 -26 11 -19 -2 -146 62 -168 84 -7 7 -16 13 -20
13 -4 0 -19 10 -33 23 -15 12 -45 37 -67 56 -41 34 -41 34 -25 64 25 48 28
136 8 198 -33 99 -142 179 -245 179 -146 0 -270 -122 -270 -265 0 -92 53 -183
135 -230 57 -34 153 -43 214 -21 44 16 45 16 75 -11 88 -82 140 -123 164 -129
12 -3 22 -9 22 -13 0 -6 56 -34 143 -70 26 -11 47 -18 47 -14 0 3 6 1 13 -4 6
-6 28 -13 47 -17 19 -3 46 -9 60 -12 14 -3 70 -7 125 -8 207 -6 403 65 530
192 61 60 95 103 95 120 0 6 4 12 9 12 9 0 31 50 41 95 1 6 6 17 11 26 14 27
21 71 26 170 12 221 -82 399 -277 525 -71 46 -220 119 -220 108 0 -4 -6 -2
-12 4 -10 8 -284 106 -323 116 -5 1 -21 8 -35 16 -14 7 -27 13 -30 12 -3 0
-32 14 -64 31 -79 42 -142 106 -174 175 -23 50 -26 70 -26 157 0 94 3 118 17
155 3 8 13 36 23 63 9 26 20 47 25 47 4 0 10 9 14 19 18 58 151 147 255 171
48 12 179 15 220 7 60 -13 93 -23 150 -45 36 -14 68 -30 72 -36 5 -7 8 -7 8
-1 0 7 3 7 8 0 4 -5 30 -26 57 -44 28 -19 53 -39 56 -44 4 -5 25 15 47 44 l40
54 -24 23 c-13 12 -26 22 -29 22 -3 0 -15 9 -27 20 -12 11 -28 20 -35 20 -7 0
-13 5 -13 10 0 6 -5 10 -11 10 -6 0 -24 9 -40 21 -16 11 -29 17 -29 14 0 -4
-11 0 -25 9 -43 29 -175 57 -277 61 -53 2 -98 2 -100 0z"/>
</g>
</svg>
